<?xml version="1.0" encoding="utf-8"?>
<!-- Generator: Adobe Illustrator 21.1.0, SVG Export Plug-In . SVG Version: 6.00 Build 0)  -->
<svg version="1.1" id="Layer_1" xmlns="http://www.w3.org/2000/svg" xmlns:xlink="http://www.w3.org/1999/xlink" x="0px" y="0px"
	 viewBox="0 0 1036.5 1047.5" enable-background="new 0 0 1036.5 1047.5" xml:space="preserve">
<title>dataJointBackdrop</title>
<g id="_Group_" opacity="0.34">
	<polygon fill="#93C4CA" points="777.3,299.2 777.3,448.8 647.8,523.6 647.8,374 	"/>
	<polygon fill="#8CBAC0" points="518.2,299.2 518.2,299.2 518.2,299.2 647.8,224.4 777.3,299.2 647.8,374 	"/>
	<polygon fill="#5BB6C8" points="647.8,523.6 647.8,673.2 518.2,748 518.2,598.4 	"/>
	<polygon fill="#93C4CA" points="647.8,523.6 647.8,523.6 518.3,448.9 518.3,448.8 	"/>
	<polygon fill="#87B3B9" points="647.8,374 647.8,523.6 518.3,448.8 	"/>
	<polygon fill="#87B3B9" points="518.2,299.2 647.8,374 518.3,448.8 518.2,448.8 518.2,299.2 	"/>
	<polygon fill="#54A7B7" points="647.8,523.6 518.2,598.4 518.2,598.3 518.2,594 518.2,448.9 518.3,448.9 	"/>
	<polygon fill="#FDBA54" points="518.2,448.8 518.2,448.9 388.7,374 388.7,374 518.2,299.2 518.2,448.8 518.3,448.8 518.3,448.9 	
		"/>
	<polygon fill="#87B3B9" points="518.3,448.9 518.2,448.9 518.2,448.8 	"/>
	<polygon fill="#57AEBE" points="518.2,598.4 518.2,748 388.7,673.2 388.7,524.3 388.7,523.6 	"/>
	<polygon fill="#54A7B7" points="518.2,598.3 518.2,598.4 388.7,523.6 518.2,448.9 518.2,448.9 518.2,594 	"/>
	<polygon fill="#54A7B7" points="518.2,448.8 518.2,448.9 518.2,448.9 	"/>
	<polygon fill="#FDBA54" points="518.2,448.9 388.7,523.6 388.7,374.8 388.7,374 	"/>
	<polygon opacity="0.25" fill="#93C4CA" enable-background="new    " points="518.3,598.4 518.3,448.9 647.8,374 647.8,523.6 	"/>
	<polygon opacity="0.25" fill="#93C4CA" enable-background="new    " points="647.8,673.2 647.8,523.7 777.3,448.8 777.3,598.4 	"/>
	<polygon fill="#EFB050" points="518.3,299.1 388.7,374 259.2,299.2 259.2,299.2 259.2,299.1 388.7,224.3 	"/>
	<polygon opacity="0.25" fill="#50A6B7" enable-background="new    " points="518.3,448.8 518.3,598.4 388.7,523.6 388.7,374.7 
		388.7,374.1 388.7,374 	"/>
	<polygon opacity="0.99" fill="#DCA249" enable-background="new    " points="388.7,374 388.7,523.6 259.2,448.8 259.2,299.9 
		259.2,299.2 259.2,299.2 	"/>
	<polygon opacity="0.25" fill="#50A6B7" enable-background="new    " points="388.7,523.6 388.7,673.2 259.2,598.4 259.2,449.5 
		259.2,448.8 259.2,448.8 	"/>
	<polygon fill="#57AEBE" points="388.7,673.2 388.7,822.8 259.2,748 259.2,599.1 259.2,598.4 	"/>
	<polygon fill="#54A9BA" points="259.2,448.8 259.2,598.4 129.6,673.2 129.6,523.6 	"/>
	<polygon fill="#93C4CA" points="259.2,598.4 259.2,748 129.6,822.8 129.6,673.3 	"/>
	<polygon fill="#84AFB5" points="0.1,448.4 0.1,448.4 0.1,448.3 129.6,373.5 259.2,448.3 129.6,523.2 	"/>
	<polygon fill="#8CBAC0" points="647.8,523.7 647.8,523.7 647.8,523.6 777.3,448.8 906.9,523.6 777.3,598.5 	"/>
	<polygon fill="#57AEBE" points="777.3,598.6 777.3,748.2 647.8,673.4 647.8,524.5 647.8,523.8 	"/>
	<polygon fill="#5BB6C8" points="906.9,523.6 906.9,673.2 777.3,748 777.3,598.4 	"/>
	<polygon opacity="0.75" fill="#50A6B7" enable-background="new    " points="129.6,673.2 129.6,822.8 0.1,748 0.1,599.1 0.1,598.5 
		0.1,598.4 	"/>
	<polygon fill="#4D99A8" points="518.3,748 518.3,897.6 647.8,972.4 647.8,822.8 	"/>
	<polygon fill="#5BB6C8" points="259.4,448.8 259.4,598.4 389,673.2 389,523.6 	"/>
	<polygon fill="#8CBAC0" points="518.3,748.1 518.3,748.1 518.3,748 647.8,673.2 777.4,748 647.8,822.9 	"/>
	<polygon fill="#57AEBE" points="129.6,523.6 129.6,673.2 0.1,598.4 0.1,449.5 0.1,448.8 	"/>
	<polygon opacity="0.69" fill="#DCA249" enable-background="new    " points="259.2,299.1 259.2,448.7 129.6,373.9 129.6,225.1 
		129.6,224.4 129.6,224.3 	"/>
	<polygon fill="#FDBA54" points="129.6,374 129.5,374 0,299.2 0.1,299.2 129.6,224.4 129.6,374 129.6,374 129.6,374 	"/>
	<polygon opacity="0.7" fill="#50A6B7" enable-background="new    " points="129.6,374 129.6,523.6 0.1,448.8 0.1,299.9 0.1,299.2 
		0.1,299.2 	"/>
	<polygon opacity="0.44" fill="#FDBA54" enable-background="new    " points="259.1,448.8 259.1,448.9 129.6,374 129.6,374 
		259.1,299.2 259.1,448.8 259.2,448.8 259.2,448.9 	"/>
	<polygon fill="#8CBAC0" points="129.9,822.9 129.9,822.9 129.9,822.8 259.4,748 389,822.8 259.4,897.7 	"/>
	<polygon fill="#5BB6C8" points="777.3,748 777.3,897.6 647.8,972.4 647.8,822.8 	"/>
	<polygon opacity="0.85" fill="#66B0BA" enable-background="new    " points="259.4,748.3 259.4,748.3 259.4,748.2 389,673.4 
		518.5,748.2 389,823.1 	"/>
	<polygon fill="#51A2B2" points="518.2,748 518.2,897.6 388.6,972.4 388.6,822.8 	"/>
	<polygon fill="#458996" points="388.7,823.1 388.7,972.7 259.2,1047.5 259.2,897.9 	"/>
	<polygon opacity="0.88" fill="#68A5AF" enable-background="new    " points="906.9,374 906.9,523.6 777.3,448.8 777.3,299.9 
		777.3,299.2 	"/>
	<polygon fill="#8CBAC0" points="777.3,299.3 777.3,299.3 777.3,299.2 906.9,224.4 1036.5,299.2 906.9,374.1 	"/>
	<polygon fill="#93C4CA" points="1036.5,299.2 1036.5,448.8 906.9,523.6 906.9,374 	"/>
	<polygon fill="#54A9BA" points="1036.5,448.8 1036.5,598.4 906.9,673.2 906.9,523.6 	"/>
	<polygon fill="#54A9BA" points="906.9,673.4 906.9,823 777.3,897.8 777.3,748.2 	"/>
	<polygon fill="#5BB6C8" points="1036.5,598.4 1036.5,748 906.9,822.8 906.9,673.2 	"/>
	<polygon fill="#57AEBE" points="259.2,897.9 259.2,1047.5 129.6,972.7 129.6,823.8 129.6,823.1 	"/>
	<polygon fill="#4D99A8" points="0,748 0,897.6 129.6,972.4 129.6,822.8 	"/>
	<polygon opacity="0.81" fill="#DCA249" enable-background="new    " points="259.2,149.6 259.2,299.2 129.6,224.4 129.6,75.5 
		129.6,74.9 129.6,74.8 	"/>
	<polygon opacity="0.99" fill="#FDBB56" enable-background="new    " points="259.4,149.6 259.4,299.2 389,224.4 389,75.5 389,74.9 
		389,74.8 	"/>
	<polygon fill="#EFB050" points="389,74.8 259.4,149.7 129.9,74.9 129.9,74.9 129.9,74.8 259.4,0 	"/>
	<polygon opacity="0.68" fill="#EFB050" enable-background="new    " points="259.4,299.2 129.9,374.1 0.3,299.3 0.3,299.3 
		0.3,299.2 129.9,224.4 	"/>
	<polygon opacity="0.49" fill="#57AEBE" enable-background="new    " points="518.3,149.6 518.3,299.2 388.7,224.4 388.7,75.5 
		388.7,74.8 	"/>
	<polygon opacity="0.77" fill="#93C4CA" enable-background="new    " points="647.8,74.8 647.8,224.4 518.2,299.2 518.2,149.7 	"/>
	<polygon opacity="0.55" fill="#8CBAC0" enable-background="new    " points="389,74.9 389,74.9 389,74.8 518.5,0 648.1,74.8 
		518.5,149.7 	"/>
	<polygon opacity="0.96" fill="#57AEBE" enable-background="new    " points="777.3,149.6 777.3,299.2 647.8,224.4 647.8,75.5 
		647.8,74.8 	"/>
	<polygon fill="#93C4CA" points="906.9,74.8 906.9,224.4 777.3,299.2 777.3,149.7 	"/>
	<polygon fill="#8CBAC0" points="647.8,74.9 647.8,74.9 647.8,74.8 777.4,0 907,74.8 777.4,149.7 	"/>
	<polygon opacity="0.72" fill="#51A1B0" enable-background="new    " points="1036.5,149.6 1036.5,299.2 906.9,224.4 906.9,75.5 
		906.9,74.8 	"/>
</g>
</svg>
