<svg xmlns="http://www.w3.org/2000/svg" xmlns:xlink="http://www.w3.org/1999/xlink" id="Layer_1" x="0" y="0" enable-background="new 0 0 1036.5 1447.5" version="1.1" viewBox="0 0 1036.5 1447.5" xml:space="preserve"><title>dataJointBackdrop</title><g id="_Group_" opacity=".34"><polygon fill="#93C4CA" points="777.5 499.6 777.5 649.2 648 724 648 574.4"/><polygon fill="#8CBAC0" points="518.5 499.6 518.5 499.6 518.5 499.6 648 424.8 777.5 499.6 648 574.4"/><polygon fill="#5BB6C8" points="648 724 648 873.6 518.5 948.4 518.5 798.8"/><polygon fill="#93C4CA" points="648 724 648 724 518.5 649.3 518.5 649.2"/><polygon fill="#87B3B9" points="648 574.4 648 724 518.5 649.2"/><polygon fill="#87B3B9" points="518.5 499.6 648 574.4 518.5 649.2 518.5 649.2"/><polygon fill="#54A7B7" points="648 724 518.5 798.8 518.5 798.7 518.5 794.4 518.5 649.3 518.5 649.3"/><polygon fill="#FDBA54" points="518.5 649.2 518.5 649.3 389 574.4 389 574.4 518.5 499.6 518.5 649.2 518.5 649.2 518.5 649.3"/><polygon fill="#87B3B9" points="518.5 649.3 518.5 649.3 518.5 649.2"/><polygon fill="#57AEBE" points="518.5 798.8 518.5 948.4 389 873.6 389 724.7 389 724"/><polygon fill="#54A7B7" points="518.5 798.7 518.5 798.8 389 724 518.5 649.3 518.5 649.3 518.5 794.4"/><polygon fill="#54A7B7" points="518.5 649.2 518.5 649.3 518.5 649.3"/><polygon fill="#FDBA54" points="518.5 649.3 389 724 389 575.2 389 574.4"/><polygon fill="#93C4CA" points="518.5 798.8 518.5 649.3 648 574.4 648 724" enable-background="new" opacity=".25"/><polygon fill="#93C4CA" points="648 873.6 648 724.1 777.5 649.2 777.5 798.8" enable-background="new" opacity=".25"/><polygon fill="#EFB050" points="518.5 499.5 389 574.4 259.5 499.6 259.5 499.6 259.5 499.5 389 424.7"/><polygon fill="#50A6B7" points="518.5 649.2 518.5 798.8 389 724 389 575.1 389 574.5 389 574.4" enable-background="new" opacity=".25"/><polygon fill="#DCA249" points="389 574.4 389 724 259.5 649.2 259.5 500.3 259.5 499.6 259.5 499.6" enable-background="new" opacity=".99"/><polygon fill="#50A6B7" points="389 724 389 873.6 259.5 798.8 259.5 649.9 259.5 649.2 259.5 649.2" enable-background="new" opacity=".25"/><polygon fill="#57AEBE" points="389 873.6 389 1023.2 259.5 948.4 259.5 799.5 259.5 798.8"/><polygon fill="#54A9BA" points="259.5 649.2 259.5 798.8 129.9 873.6 129.9 724"/><polygon fill="#93C4CA" points="259.5 798.8 259.5 948.4 129.9 1023.2 129.9 873.7"/><polygon fill="#84AFB5" points=".4 648.8 .4 648.8 .4 648.7 129.9 573.9 259.5 648.7 129.9 723.6"/><polygon fill="#8CBAC0" points="648 724.1 648 724.1 648 724 777.5 649.2 907.2 724 777.5 798.9"/><polygon fill="#57AEBE" points="777.5 799 777.5 948.6 648 873.8 648 724.9 648 724.2"/><polygon fill="#5BB6C8" points="907.2 724 907.2 873.6 777.5 948.4 777.5 798.8"/><polygon fill="#50A6B7" points="129.9 873.6 129.9 1023.2 .4 948.4 .4 799.5 .4 798.9 .4 798.8" enable-background="new" opacity=".75"/><polygon fill="#4D99A8" points="518.5 948.4 518.5 1098 648 1172.8 648 1023.2"/><polygon fill="#5BB6C8" points="259.7 649.2 259.7 798.8 389.2 873.6 389.2 724"/><polygon fill="#8CBAC0" points="518.5 948.5 518.5 948.5 518.5 948.4 648 873.6 777.7 948.4 648 1023.3"/><polygon fill="#57AEBE" points="129.9 724 129.9 873.6 .4 798.8 .4 649.9 .4 649.2"/><polygon fill="#DCA249" points="259.5 499.5 259.5 649.1 129.9 574.3 129.9 425.5 129.9 424.8 129.9 424.7" enable-background="new" opacity=".69"/><polygon fill="#FDBA54" points="129.9 574.4 129.8 574.4 .3 499.6 .4 499.6 129.9 424.8"/><polygon fill="#50A6B7" points="129.9 574.4 129.9 724 .4 649.2 .4 500.3 .4 499.6 .4 499.6" enable-background="new" opacity=".7"/><polygon fill="#FDBA54" points="259.4 649.2 259.4 649.3 129.9 574.4 129.9 574.4 259.4 499.6 259.4 649.2 259.5 649.2 259.5 649.3" enable-background="new" opacity=".44"/><polygon fill="#8CBAC0" points="130.2 1023.3 130.2 1023.3 130.2 1023.2 259.7 948.4 389.2 1023.2 259.7 1098.1"/><polygon fill="#5BB6C8" points="777.5 948.4 777.5 1098 648 1172.8 648 1023.2"/><polygon fill="#66B0BA" points="259.7 948.7 259.7 948.7 259.7 948.6 389.2 873.8 518.8 948.6 389.2 1023.5" enable-background="new" opacity=".85"/><polygon fill="#51A2B2" points="518.5 948.4 518.5 1098 388.9 1172.8 388.9 1023.2"/><polygon fill="#458996" points="389 1023.5 389 1173.1 259.5 1247.9 259.5 1098.3"/><polygon fill="#68A5AF" points="907.2 574.4 907.2 724 777.5 649.2 777.5 500.3 777.5 499.6" enable-background="new" opacity=".88"/><polygon fill="#8CBAC0" points="777.5 499.7 777.5 499.7 777.5 499.6 907.2 424.8 1036.7 499.6 907.2 574.5"/><polygon fill="#93C4CA" points="1036.7 499.6 1036.7 649.2 907.2 724 907.2 574.4"/><polygon fill="#54A9BA" points="1036.7 649.2 1036.7 798.8 907.2 873.6 907.2 724"/><polygon fill="#54A9BA" points="907.2 873.8 907.2 1023.4 777.5 1098.2 777.5 948.6"/><polygon fill="#5BB6C8" points="1036.7 798.8 1036.7 948.4 907.2 1023.2 907.2 873.6"/><polygon fill="#57AEBE" points="259.5 1098.3 259.5 1247.9 129.9 1173.1 129.9 1024.2 129.9 1023.5"/><polygon fill="#4D99A8" points=".3 948.4 .3 1098 129.9 1172.8 129.9 1023.2"/><polygon fill="#DCA249" points="259.5 350 259.5 499.6 129.9 424.8 129.9 275.9 129.9 275.3 129.9 275.2" enable-background="new" opacity=".81"/><polygon fill="#FDBB56" points="259.7 350 259.7 499.6 389.2 424.8 389.2 275.9 389.2 275.3 389.2 275.2" enable-background="new" opacity=".99"/><polygon fill="#EFB050" points="389.2 275.2 259.7 350.1 130.2 275.3 130.2 275.3 130.2 275.2 259.7 200.4"/><polygon fill="#EFB050" points="259.7 499.6 130.2 574.5 .6 499.7 .6 499.7 .6 499.6 130.2 424.8" enable-background="new" opacity=".68"/><polygon fill="#57AEBE" points="518.5 350 518.5 499.6 389 424.8 389 275.9 389 275.2" enable-background="new" opacity=".49"/><polygon fill="#93C4CA" points="648 275.2 648 424.8 518.5 499.6 518.5 350.1" enable-background="new" opacity=".77"/><polygon fill="#8CBAC0" points="389.2 275.3 389.2 275.3 389.2 275.2 518.8 200.4 648.2 275.2 518.8 350.1" enable-background="new" opacity=".55"/><polygon fill="#57AEBE" points="777.5 350 777.5 499.6 648 424.8 648 275.9 648 275.2" enable-background="new" opacity=".96"/><polygon fill="#93C4CA" points="907.2 275.2 907.2 424.8 777.5 499.6 777.5 350.1"/><polygon fill="#8CBAC0" points="648 275.3 648 275.3 648 275.2 777.7 200.4 907.2 275.2 777.7 350.1"/><polygon fill="#51A1B0" points="1036.7 350 1036.7 499.6 907.2 424.8 907.2 275.9 907.2 275.2" enable-background="new" opacity=".72"/><polygon fill="none" stroke="#8CBAC0" stroke-miterlimit="10" points="389.2 1172.8 389.2 1172.8 389.2 1172.7 518.8 1098 648.2 1172.7 518.8 1247.6"/><polygon fill="none" stroke="#5BB6C8" stroke-miterlimit="10" points="648 1172.8 648 1322.4 518.5 1397.2 518.5 1247.6"/><polygon fill="none" stroke="#4D99A8" stroke-miterlimit="10" points="389 1172.8 389 1322.4 518.5 1397.2 518.5 1247.6"/><polygon fill="none" stroke="#5BB6C8" stroke-miterlimit="10" points="777.5 1098.2 777.5 1247.8 648 1322.6 648 1173"/><polygon fill="none" stroke="#4D99A8" stroke-miterlimit="10" points="777.5 1098.2 777.5 1247.8 907 1322.6 907 1173"/><polygon fill="none" stroke="#8CBAC0" stroke-miterlimit="10" points="777.7 1098.2 777.7 1098.2 777.7 1098.2 907.2 1023.3 1036.8 1098.2 907.2 1173.1"/><polygon fill="none" stroke="#5BB6C8" stroke-miterlimit="10" points="1036.7 1098.2 1036.7 1247.8 907.2 1322.6 907.2 1173"/><polygon fill="none" stroke="#5BB6C8" stroke-miterlimit="10" points="389 1172.8 389 1322.4 259.5 1397.2 259.5 1247.6"/><polygon fill="none" stroke="#5BB6C8" stroke-miterlimit="10" points="129.9 1172.8 129.9 1322.4 .4 1397.2 .4 1247.6"/><polygon fill="none" stroke="#4D99A8" stroke-miterlimit="10" points="129.9 1172.8 129.9 1322.4 259.4 1397.2 259.4 1247.6"/><polygon fill="none" stroke="#5BB6C8" stroke-miterlimit="10" points="1166.2 1023.5 1166.2 1173.1 1036.7 1247.9 1036.7 1098.3"/><polygon fill="none" stroke="#8CBAC0" stroke-miterlimit="10" points="907.2 1023.2 907.2 1023.2 907.2 1023.2 1036.7 948.3 1166.3 1023.2 1036.7 1098.1"/><polygon fill="none" stroke="#8CBAC0" stroke-miterlimit="10" points="-129.3 1173.1 -129.3 1173.1 -129.3 1173 .2 1098.2 129.9 1173 .2 1247.9"/><polygon fill="none" stroke="#8CBAC0" stroke-miterlimit="10" points=".6 1397.2 .6 1397.2 .6 1397.2 130.1 1322.4 259.8 1397.2 130.1 1472.1"/><polygon fill="none" stroke="#8CBAC0" stroke-miterlimit="10" points="-129 275.3 -129 275.3 -129 275.2 .5 200.4 130.2 275.2 .5 350.1"/><polygon fill="none" stroke="#8CBAC0" stroke-miterlimit="10" points="907.2 275.3 907.2 275.3 907.2 275.2 1036.7 200.4 1166.3 275.2 1036.7 350.1"/><polygon fill="none" stroke="#5BB6C8" stroke-miterlimit="10" points="777.5 50.8 777.5 200.4 648 275.2 648 125.6"/><polygon fill="none" stroke="#5BB6C8" stroke-miterlimit="10" points="518.5 50.8 518.5 200.4 389 275.2 389 125.6"/><polygon fill="none" stroke="#5BB6C8" stroke-miterlimit="10" points="259.5 50.8 259.5 200.4 130 275.2 130 125.6"/><polygon fill="none" stroke="#5BB6C8" stroke-miterlimit="10" points="130 275.3 130 424.9 .5 499.7 .5 350.1"/><polygon fill="none" stroke="#5BB6C8" stroke-miterlimit="10" points="1036.7 50.8 1036.7 200.4 907.2 275.2 907.2 125.6"/><polygon fill="none" stroke="#8CBAC0" stroke-miterlimit="10" points="518.5 50.8 518.5 50.8 518.5 50.7 648 -24.1 777.7 50.7 648 125.6"/><polygon fill="none" stroke="#4D99A8" stroke-miterlimit="10" points="518.5 50.8 518.5 200.4 648 275.2 648 125.6"/><polygon fill="none" stroke="#4D99A8" stroke-miterlimit="10" points="777.5 50.8 777.5 200.4 907 275.2 907 125.6"/><polygon fill="none" stroke="#4D99A8" stroke-miterlimit="10" points="259.5 50.8 259.5 200.4 389 275.2 389 125.6"/><polygon fill="none" stroke="#4D99A8" stroke-miterlimit="10" points=".4 50.8 .4 200.4 129.9 275.2 129.9 125.6"/><polygon fill="none" stroke="#8CBAC0" stroke-miterlimit="10" points="453.7 1210.6 453.7 1210.6 453.7 1210.5 583.2 1135.7 712.8 1210.5 583.2 1285.4"/><polygon fill="none" stroke="#8CBAC0" stroke-miterlimit="10" points="712.8 1135.7 712.8 1135.7 712.8 1135.6 842.2 1060.8 972 1135.6 842.2 1210.6"/><polygon fill="none" stroke="#4D99A8" stroke-miterlimit="10" points="453.7 1134.5 453.7 1284.1 583.2 1358.9 583.2 1209.3"/><polygon fill="none" stroke="#4D99A8" stroke-miterlimit="10" points="65.1 1210.4 65.1 1360 194.6 1434.8 194.6 1285.2"/><polygon fill="none" stroke="#4D99A8" stroke-miterlimit="10" points="907.2 1023.5 907.2 1173.1 1036.7 1247.9 1036.7 1098.3"/><polygon fill="none" stroke="#5BB6C8" stroke-miterlimit="10" points="1101.3 985.7 1101.3 1135.3 972 1210.2 972 1060.6"/><polygon fill="none" stroke="#5BB6C8" stroke-miterlimit="10" points="842.2 1060.6 842.2 1210.2 712.8 1285 712.8 1135.4"/><polygon fill="none" stroke="#5BB6C8" stroke-miterlimit="10" points="130 200.4 130 350 .5 424.8 .5 275.2"/><polygon fill="none" stroke="#5BB6C8" stroke-miterlimit="10" points="712.8 13.4 712.8 163 583.2 237.8 583.2 88.2"/><polygon fill="none" stroke="#8CBAC0" stroke-miterlimit="10" points="842.5 237.9 842.5 237.9 842.5 237.8 972 163 1101.3 237.8 972 312.7"/><polygon fill="none" stroke="#8CBAC0" stroke-miterlimit="10" points="648 1322.6 648 1322.6 648 1322.5 777.5 1247.7 907.2 1322.5 777.5 1397.5"/><polygon fill="none" stroke="#8CBAC0" stroke-miterlimit="10" points="259.7 1322.6 259.7 1322.6 259.7 1322.5 389.2 1247.7 518.8 1322.5 389.2 1397.5"/><polygon fill="none" stroke="#8CBAC0" stroke-miterlimit="10" points="130.3 1472.1 130.3 1472.1 130.3 1472 259.8 1397.2 389.5 1472 259.8 1547"/><polygon fill="none" stroke="#5BB6C8" stroke-miterlimit="10" points="648 1322.6 648 1472.2 518.5 1547 518.5 1397.4"/><polygon fill="none" stroke="#5BB6C8" stroke-miterlimit="10" points="907 1322.6 907 1472.2 777.7 1547 777.7 1397.4"/><polygon fill="none" stroke="#5BB6C8" stroke-miterlimit="10" points="259.4 1397.5 259.4 1547.1 130 1621.9 130 1472.3"/><polygon fill="none" stroke="#4D99A8" stroke-miterlimit="10" points=".4 1397.5 .4 1547.1 129.9 1621.9 129.9 1472.3"/><polygon fill="none" stroke="#4D99A8" stroke-miterlimit="10" points="259.8 1397.5 259.8 1547.1 389.2 1621.9 389.2 1472.3"/><polygon fill="none" stroke="#4D99A8" stroke-miterlimit="10" points="389 1472.1 389 1621.7 518.5 1696.5 518.5 1546.9"/><polygon fill="none" stroke="#4D99A8" stroke-miterlimit="10" points="648 1322.6 648 1472.2 777.5 1547 777.5 1397.4"/><polygon fill="none" stroke="#4D99A8" stroke-miterlimit="10" points="907.2 1322.6 907.2 1472.2 1036.7 1547 1036.7 1397.4"/><polygon fill="none" stroke="#4D99A8" stroke-miterlimit="10" points="583.2 1360.2 583.2 1509.8 712.8 1584.6 712.8 1435"/><polygon fill="none" stroke="#5BB6C8" stroke-miterlimit="10" points="1166.2 1322.6 1166.2 1472.2 1036.7 1547 1036.7 1397.4"/><polygon fill="none" stroke="#5BB6C8" stroke-miterlimit="10" points="648 1472.1 648 1621.7 518.5 1696.5 518.5 1546.9"/><polygon fill="none" stroke="#5BB6C8" stroke-miterlimit="10" points="777.5 1397.5 777.5 1547.1 648.2 1621.9 648.2 1472.3"/><polygon fill="none" stroke="#5BB6C8" stroke-miterlimit="10" points="324.5 1434.8 324.5 1584.4 195.1 1659.2 195.1 1509.6"/><polygon fill="none" stroke="#5BB6C8" stroke-miterlimit="10" points="1166.2 1172.8 1166.2 1322.4 1036.7 1397.2 1036.7 1247.6"/><polygon fill="none" stroke="#5BB6C8" stroke-miterlimit="10" points="842.2 1285.3 842.2 1434.9 712.8 1509.7 712.8 1360.1"/><polygon fill="none" stroke="#5BB6C8" stroke-miterlimit="10" points="1036.7 1547 1036.7 1696.6 907.2 1771.4 907.2 1621.8"/><polygon fill="none" stroke="#4D99A8" stroke-miterlimit="10" points="777.5 1547 777.5 1696.6 907 1771.4 907 1621.8"/><polygon fill="none" stroke="#4D99A8" stroke-miterlimit="10" points="648 1627.4 648 1777 777.5 1851.8 777.5 1702.2"/><polygon fill="none" stroke="#4D99A8" stroke-miterlimit="10" points="518.5 1696.5 518.5 1846.1 648 1920.9 648 1771.3"/><polygon fill="none" stroke="#5BB6C8" stroke-miterlimit="10" points="777.5 1696.5 777.5 1846.1 648.2 1920.9 648.2 1771.3"/><polygon fill="none" stroke="#5BB6C8" stroke-miterlimit="10" points="907 1621.9 907 1771.5 777.7 1846.3 777.7 1696.7"/><polygon fill="none" stroke="#5BB6C8" stroke-miterlimit="10" points="972 1509.7 972 1659.3 842.5 1734.1 842.5 1584.5"/><polygon fill="none" stroke="#5BB6C8" stroke-miterlimit="10" points="518.5 1547 518.5 1696.6 389 1771.4 389 1621.8"/><polygon fill="none" stroke="#8CBAC0" stroke-miterlimit="10" points="130.2 1621.9 130.2 1621.9 130.2 1621.8 259.7 1547 389.4 1621.8 259.7 1696.8"/><polygon fill="none" stroke="#8CBAC0" stroke-miterlimit="10" points="324 1434.8 324 1434.8 324 1434.7 453.5 1359.9 583.2 1434.7 453.5 1509.7"/><polygon fill="none" stroke="#8CBAC0" stroke-miterlimit="10" points="259.9 1696.5 259.9 1696.5 259.9 1696.4 389.4 1621.6 519 1696.4 389.4 1771.4"/><polygon fill="none" stroke="#8CBAC0" stroke-miterlimit="10" points="388.9 1771.4 388.9 1771.4 388.9 1771.3 518.2 1696.5 648 1771.3 518.2 1846.3"/><polygon fill="none" stroke="#8CBAC0" stroke-miterlimit="10" points="324.2 1659.2 324.2 1659.2 324.2 1659.1 453.7 1584.3 583.2 1659.1 453.7 1734.1"/><polygon fill="none" stroke="#8CBAC0" stroke-miterlimit="10" points="259.9 50.8 259.9 50.8 259.9 50.7 389.4 -24.1 519 50.7 389.4 125.6"/><polygon fill="none" stroke="#8CBAC0" stroke-miterlimit="10" points="65.5 13.4 65.5 13.4 65.5 13.4 195 -61.4 324.6 13.4 195 88.3"/><polygon fill="none" stroke="#8CBAC0" stroke-miterlimit="10" points="777.7 50.8 777.7 50.8 777.7 50.7 907.2 -24.1 1036.8 50.7 907.2 125.6"/><polygon fill="none" stroke="#8CBAC0" stroke-miterlimit="10" points="130.4 125.6 130.4 125.6 130.4 125.6 259.9 50.8 389.5 125.6 259.9 200.5"/><polygon fill="none" stroke="#5BB6C8" stroke-miterlimit="10" points="454.2 13.4 454.2 163 324.7 237.8 324.7 88.2"/></g><polygon fill="none" stroke="#5BB6C8" stroke-miterlimit="10" points="130.7 -24.4 130.7 125.2 1.2 200 1.2 50.4" opacity=".51"/><polygon fill="none" stroke="#5BB6C8" stroke-miterlimit="10" points="972 13.4 972 163 842.5 237.8 842.5 88.2" opacity=".35"/></svg>